<svg xmlns="http://www.w3.org/2000/svg" xml:space="preserve" width="2000" height="394" data-id="lg_tqSYVnpnDXoDPLVjM6" data-version="1" viewBox="0 0 2000 394"><g data-padding="20"><g transform="translate(10 10)scale(.94924)"><path fill="#3d9970" d="M1042.941.005a196.995 196.995 0 1 0 0 393.99 196.995 196.995 0 1 0 0-393.99"/><path fill="#fff" d="M1127.586 286.065h-169.29v6.27h11.265v.21c0 6.896 5.058 13.145 12.937 15.883l.502.168h119.903l.502-.168c7.858-2.758 12.937-8.987 12.937-15.884l-.02-.209h11.264Zm-17.514 6.48c0 4.597-4.076 8.15-8.277 9.78H984.087c-4.18-1.609-8.277-5.183-8.277-9.802v-.209h134.24Zm3.54-160.524c-8.945-28.3-30.452-48.783-55.818-54.551v-.242a14.673 14.673 0 0 0-29.286 0l.02.242c-25.386 5.768-46.873 26.25-55.817 54.551l-1.227 3.92h143.374Zm-70.45-63.395c4.461 0 8.1 3.417 8.521 7.758a66.3 66.3 0 0 0-17.044 0 8.643 8.643 0 0 1 8.522-7.758m-63.355 61.305c10.693-28.964 35.697-48.08 63.355-48.08s52.662 19.136 63.355 48.04Z"/><path fill="#fff" d="m1050.191 89.842-.16 6.19c14.612 3.76 27.677 12.865 37.244 25.749l7.538.2c-10.814-16.4-26.693-27.938-44.622-32.119"/><rect width="374.83" height="134.027" x="503.92" y="-285.294" fill="#3d9970" rx="0" ry="0" transform="matrix(.93 0 0 .93 400 414.16)"/><g stroke="#fff" stroke-width="3" transform="matrix(.93 0 0 .93 400.12 350.723)"><path d="M505.268-218.28h372.134" vector-effect="non-scaling-stroke"/>undefined
        undefined</g><g stroke="#fff" stroke-width="3" transform="matrix(.93 0 0 .93 399.88 477.557)"><path d="M505.268-218.28h372.134" vector-effect="non-scaling-stroke"/>undefined
        undefined</g><path fill="#fff" d="M902.171 238.67q-6.88 0-11.98-2.74t-7.92-7.92-2.82-12.46v-35.84h12.84v34.36q0 3.36.62 5.84t1.88 4.14 3.12 2.46 4.34.8q2.44 0 4.26-.8t3.04-2.44 1.84-4.14.62-5.86v-34.36h12.84v35.84q0 7.16-2.8 12.36t-7.88 7.98-12 2.78m56.52-.8h-12.72v-41.84q0-2.4.88-3.48t2.68-1.36h-17.92v-11.48h41.36v11.48h-14.28Zm33.96 0h-12.68v-58.16h33.96l.08 11.48h-29.08l7.72-7.6v25.28l-7.76-4.92h27v11.52h-24.16l4.92-4.28Zm65.96 0h-36.36v-58.16h35.64v11.48h-27l3.88-2.96v16.68l-3.88-2.52h24.32v11.44h-23.92l3.48-2.48v17.96l-3.88-3h27.72Zm18.6 0h-13.48l17.48-58.16h19.48l17.48 58.16h-13.48l-5.24-18.8 7.04 5.28h-28.68l.72-10.08h25.16l-4.28 4.64-5.28-18.92-2.92-11.88h-.64l-2.88 11.88Zm66.56.8q-6.68 0-12.02-2.1t-8.34-6.5-2.76-11.24h12.4q.08 2.88 1.2 4.92t3.52 3.1 6.24 1.06q3.12 0 5.12-.64t2.94-1.9.94-3.1q0-2.04-1.28-3.38t-4.02-2.5-7.06-2.64q-5.36-1.92-9.38-4.32t-6.22-5.88-2.2-8.56q0-7.92 5.5-12.06t14.94-4.14q6.44 0 10.76 2.02t6.62 6.02 2.7 9.92h-12.16q-.08-2.32-.98-3.92t-2.62-2.44-4.28-.84q-3.88 0-5.92 1.26t-2.04 3.98q0 2.04.94 3.46t3.26 2.66 6.44 2.76q3.84 1.4 7.38 2.74t6.34 3.16 4.42 4.58 1.62 7.04q.04 8.72-5.96 13.1t-16.04 4.38m52.28-.8h-12.72v-41.84q0-2.4.88-3.48t2.68-1.36h-17.92v-11.48h41.36v11.48h-14.28Z"/></g><path fill="transparent" stroke="transparent" d="M803 0h394v394H803z"/></g></svg>